PathFileType	4	(X/Y/Z)	C:\Users\Gabre\Documents\2-Sophmore\Autumn\ME 191\Nick_10292018\Nick_10292018\Upper Extremity\shoulder_flexion.trc
DataRate	CameraRate	NumFrames	NumMarkers	Units	OrigDataRate	OrigDataStartFrame	OrigNumFrames
100.00	100.00	       5	21	mm	100.00	233	       621
Frame#	Time	Back_IMU_O			Back_IMU_D			Back_IMU_X			Back_IMU_Y			C7			R.Acromion			L.Acromion			R.Elbow			R.Radius			R.Ulna			R.Hand			Humerus_IMU_O			Humerus_IMU_D			Humerus_IMU_X			Humerus_IMU_Y			Forearm_IMU_O			Forearm_IMU_D			Forearm_IMU_X			Forearm_IMU_Y			Hand_IMU_O			Scapula_IMU_O			
		X1	Y1	Z1	X2	Y2	Z2	X3	Y3	Z3	X4	Y4	Z4	X5	Y5	Z5	X6	Y6	Z6	X7	Y7	Z7	X8	Y8	Z8	X9	Y9	Z9	X10	Y10	Z10	X11	Y11	Z11	X12	Y12	Z12	X13	Y13	Z13	X14	Y14	Z14	X15	Y15	Z15	X16	Y16	Z16	X17	Y17	Z17	X18	Y18	Z18	X19	Y19	Z19	X20	Y20	Z20	X21	Y21	Z21	

233	2.320	-912.51215	451.57767	1007.52979	-922.07245	525.58728	896.55768	-914.35236	537.19696	998.68451	-920.57129	441.43384	905.24017	-904.53723	497.06030	1023.25787	-852.11670	379.64557	1042.76941	-817.25739	671.85516	989.57745	-713.34857	240.15697	1263.75952	-713.33832	284.04208	1539.64648	-675.63049	243.32680	1526.51440	-696.00098	270.58673	1650.04565	-829.79077	346.89474	1138.56262	-779.58795	229.75101	1126.36072	-821.23132	253.72073	1079.34460	-789.35284	321.30014	1183.25928	-745.16974	286.45282	1474.44580	-659.21857	220.70308	1495.22546	-671.94604	222.31583	1450.25989	-731.48126	283.34454	1519.49536	-693.33856	245.96786	1602.18542	-878.29456	340.88309	1034.30859	
234	2.330	-912.56506	451.38730	1007.47864	-922.05035	525.44220	896.56421	-914.34930	536.97565	998.70642	-920.49097	441.32635	905.15558	-904.60046	496.90482	1023.25238	-852.02020	379.30841	1042.69434	-817.33594	671.70850	989.72467	-713.10217	239.87178	1263.54041	-712.90692	283.36520	1539.59851	-674.89709	242.54523	1526.16333	-695.22607	269.73569	1649.84741	-829.54712	346.79965	1138.42712	-779.78674	229.44774	1126.19519	-821.16565	253.34305	1079.08984	-788.72656	320.77228	1183.01831	-743.12915	285.75339	1474.07458	-658.48773	220.09615	1494.93225	-671.13556	221.58426	1449.85999	-731.08783	282.64386	1519.33398	-692.41760	245.23990	1601.89880	-878.26239	340.68573	1034.29834	
235	2.340	-912.41840	451.24796	1007.33081	-922.09967	525.33716	896.54974	-914.21350	536.76263	998.63489	-920.45477	441.28207	905.12701	-904.54309	496.54974	1023.27191	-851.97552	379.12997	1042.64673	-817.24530	671.60358	989.81348	-713.01270	239.51880	1263.54285	-712.19110	282.75284	1539.35791	-674.26556	241.88820	1525.89136	-694.70752	268.83044	1649.64355	-829.21210	346.26089	1138.24377	-779.55347	229.27455	1126.06458	-821.06714	253.19865	1078.90271	-788.70514	320.50793	1182.98975	-742.44934	285.40604	1473.89380	-658.37311	219.32161	1494.75659	-670.87122	221.28688	1449.72278	-730.45642	282.09259	1519.18494	-691.79498	244.29964	1601.79773	-878.16595	340.46509	1034.27344	
236	2.350	-912.33289	450.99301	1007.31744	-922.00861	525.19019	896.57178	-914.21716	536.64856	998.67560	-920.52747	441.13617	905.16327	-904.55371	496.44168	1023.31879	-851.98718	379.01108	1042.66858	-817.18854	671.24805	989.94659	-713.00275	239.32414	1263.37476	-711.70892	282.01874	1539.17859	-674.02747	241.38719	1525.70325	-693.94958	267.92151	1649.59277	-829.50354	345.91455	1138.44666	-779.31464	228.79993	1125.89917	-820.98920	252.83273	1078.84131	-788.46649	320.41519	1182.87488	-741.99451	284.92554	1473.83533	-657.65533	218.88354	1494.41309	-670.80389	220.49431	1449.54285	-729.84528	281.41583	1519.02551	-691.39636	243.79434	1601.53052	-878.08417	340.15869	1034.24915	
237	2.360	-912.27069	450.93362	1007.33600	-921.90198	525.06885	896.61926	-914.08398	536.48242	998.68091	-920.50305	440.82547	905.16974	-904.53363	496.32425	1023.34882	-851.82629	378.73752	1042.64905	-817.05414	671.01331	989.99725	-712.77484	238.91200	1263.32678	-711.32581	281.47012	1539.21252	-673.68365	240.69444	1525.50610	-693.33112	267.16043	1649.47961	-829.39563	345.82388	1138.29236	-779.27313	228.45784	1125.85547	-821.02454	252.74152	1078.74475	-788.67914	320.14523	1182.90491	-741.59668	284.47565	1473.81018	-657.33167	218.33205	1494.03760	-670.23761	220.01474	1449.12927	-729.30603	280.91599	1518.90051	-690.74963	243.03516	1601.30518	-877.96954	339.94171	1034.19360	
